# WaveFront *.obj file (generated by CINEMA 4D)

mtllib ./track.mtl

v 213.83505249023438 2.61671566963196 144.60673522949219
v 121.21751403808594 2 182.03340148925781
v 100.31014251708984 2.61671566963196 20.95790481567383
v 55.53269577026367 2 110.48110961914062
v 57.75946807861328 2 -28.0938892364502
v -10.98158359527588 2 41.33434295654297
v -15.49059200286865 2 -97.15642547607422
v -79.88224029541016 2 -23.67630958557129
v -94.77571105957031 2 -161.61004638671875
v -152.17013549804688 2 -82.54367828369141
v -182.80059814453125 2 -218.24609375
v -228.35801696777344 2 -131.81614685058594
v -305.40402221679688 1.3648784160614 -255.56132507324219
v -288.82229614257812 2 -164.47259521484375
v -419.13375854492188 2 -196.49549865722656
v -332.86114501953125 2 -121.91939544677734
v -458.12710571289062 2 -73.27255249023438
v -363.11474609375 2 -50.5072135925293
v -464.73529052734375 2 43.76719284057617
v -368.39837646484375 2 27.49413871765137
v -421.52102661132812 2 149.69253540039062
v -336.31661987304688 2 101.88228607177734
v -342.82958984375 2 248.88890075683594
v -300.34326171875 2 160.90866088867188
v -208.13446044921875 2 246.81887817382812
v -239.82356262207031 2 154.39912414550781
v -113.13699340820312 2 181.74215698242188
v -175.414794921875 2 106.46210479736328
v -40.82613372802734 2 112.40891265869141
v -106.84551239013672 2 40.38771057128906
v 34.00234222412109 2 46.90763092041016
v -34.54987716674805 2 -22.70705795288086
v 101.10703277587891 2 -27.39847373962402
v 29.1888313293457 2 -93.53003692626953
v 162.08869934082031 2 -93.25778198242188
v 101.87724304199219 2 -170.20057678222656
v 234.80813598632812 2 -133.89527893066406
v 199.64218139648438 2 -225.04881286621094
v 308.8712158203125 2 -152.62977600097656
v 316.0205078125 2 -250.06950378417969
v 368.898193359375 2 -131.27816772460938
v 438.00909423828125 2 -200.33824157714844
v 391.14822387695312 2 -64.60172271728516
v 486.70806884765625 2 -84.94686889648438
v 395.15444946289062 2 16.63204383850098
v 492.07037353515625 2 28.99794006347656
v 369.806396484375 2 96.54878234863281
v 459.3406982421875 2 135.65402221679688
v 338.01080322265625 2 160.67623901367188
v 393.73867797851562 2 240.92594909667969
v 274.06918334960938 2 168.20870971679688
v 264.92971801757812 2 265.48193359375
v 208.75961303710938 2 143.20295715332031
v 147.23112487792969 2 222.71406555175781
v 149.92604064941406 2 74.43936157226562
v 87.71897888183594 2 137.20411682128906
# 56 vertices

vn -0.00485695712268 0.99997824430466 0.00445898016915
vn -0.0052984491922 0.999984562397 0.00168725033291
vn -0.00286996178329 0.99999570846558 -0.00054224871565
vn 0 1 0
vn -0.00080936541781 0.99999839067459 -0.00159577291925
vn -0.00136958179064 0.99999070167542 -0.0040870453231
vn -0.00056021887576 0.99999672174454 -0.00249128160067
# 7 normals

o Polygon.1
usemtl Mat.1
f 3//2 4//2 2//1 1//1
f 5//3 6//3 4//2 3//2
f 7//4 8//4 6//3 5//3
f 9//4 10//4 8//4 7//4
f 13//6 14//6 12//5 11//5
f 17//4 18//4 16//7 15//7
f 21//4 22//4 20//4 19//4
f 25//4 26//4 24//4 23//4
f 29//4 30//4 28//4 27//4
f 31//4 32//4 30//4 29//4
f 33//4 34//4 32//4 31//4
f 35//4 36//4 34//4 33//4
f 39//4 40//4 38//4 37//4
f 43//4 44//4 42//4 41//4
f 47//4 48//4 46//4 45//4
f 51//4 52//4 50//4 49//4
f 55//4 56//4 54//4 53//4

usemtl Mat.2
f 11//5 12//5 10//4 9//4
f 15//7 16//7 14//6 13//6
f 19//4 20//4 18//4 17//4
f 23//4 24//4 22//4 21//4
f 27//4 28//4 26//4 25//4
f 37//4 38//4 36//4 35//4
f 41//4 42//4 40//4 39//4
f 45//4 46//4 44//4 43//4
f 49//4 50//4 48//4 47//4
f 53//4 54//4 52//4 51//4

v 196.97882080078125 4.56810092926025 133.2076416015625
v 111.66215515136719 4 167.68403625488281
v 92.40287780761719 4.56810092926025 19.30583190917969
v 51.1551513671875 4 101.77207946777344
v 53.20639038085938 4 -25.87929725646973
v -10.11592483520508 4 38.07603073120117
v -14.26949596405029 4 -89.49775695800781
v -73.58526611328125 4 -21.8099479675293
v -87.30471038818359 4 -148.87062072753906
v -140.17483520507812 4 -76.03691101074219
v -168.39076232910156 4 -201.04212951660156
v -210.35696411132812 4 -121.42531585693359
v -281.32955932617188 3.41494393348694 -235.4158935546875
v -266.05496215820312 4 -151.50750732421875
v -386.09417724609375 4 -181.006103515625
v -306.622314453125 4 -112.30870819091797
v -422.01376342773438 4 -67.49661254882812
v -334.49105834960938 4 -46.52581787109375
v -428.10104370117188 4 40.31710433959961
v -339.35821533203125 4 25.32682609558105
v -388.29327392578125 4 137.89253234863281
v -309.80538940429688 4 93.85108947753906
v -315.804931640625 4 229.26943969726562
v -276.66775512695312 4 148.22451782226562
v -191.72758483886719 4 227.36259460449219
v -220.918701171875 4 142.22811889648438
v -104.21861267089844 4 167.41575622558594
v -161.58717346191406 4 98.06988525390625
v -37.60788345336914 4 103.54791259765625
v -98.42307281494141 4 37.20401763916016
v 31.32199668884277 4 43.20998764038086
v -31.82637214660645 4 -20.91710090637207
v 93.13694763183594 4 -25.23870086669922
v 26.8879280090332 4 -86.15723419189453
v 149.31153869628906 4 -85.90644073486328
v 93.84644317626953 4 -156.78396606445312
v 216.29862976074219 4 -123.34055328369141
v 183.90473937988281 4 -207.30860900878906
v 284.52346801757812 4 -140.59825134277344
v 291.10916137695312 4 -230.35696411132812
v 339.818603515625 4 -120.92974090576172
v 403.48162841796875 4 -184.54594421386719
v 360.314697265625 4 -59.5092887878418
v 448.34173583984375 4 -78.25065612792969
v 364.005126953125 4 15.320969581604
v 453.28134155273438 4 26.71208381652832
v 340.65521240234375 4 88.93801879882812
v 423.13168334960938 4 124.96066284179688
v 311.36599731445312 4 148.01042175292969
v 362.70095825195312 4 221.93418884277344
v 252.46479797363281 4 154.94911193847656
v 244.0457763671875 4 244.55447387695312
v 192.303466796875 4 131.91452026367188
v 135.62516784667969 4 205.15791320800781
v 138.10763549804688 4 68.57143402099609
v 80.80425262451172 4 126.38856506347656
# 56 vertices

vn -0.00485695526004 0.99997824430466 0.00445897877216
vn -0.00529844732955 0.999984562397 0.00168724998366
vn -0.00286996085197 0.99999570846558 -0.0005422483664
vn -0.00080936518498 0.99999839067459 -0.00159577280283
vn -0.0013695807429 0.99999070167542 -0.0040870453231
vn -0.00056021811906 0.99999672174454 -0.00249128160067
# 6 normals

o Polygon
usemtl Mat
f 59//9 60//9 58//8 57//8
f 61//10 62//10 60//9 59//9
f 63//4 64//4 62//10 61//10
f 65//4 66//4 64//4 63//4
f 67//11 68//11 66//4 65//4
f 69//12 70//12 68//11 67//11
f 71//13 72//13 70//12 69//12
f 73//4 74//4 72//13 71//13
f 75//4 76//4 74//4 73//4
f 77//4 78//4 76//4 75//4
f 79//4 80//4 78//4 77//4
f 81//4 82//4 80//4 79//4
f 83//4 84//4 82//4 81//4
f 85//4 86//4 84//4 83//4
f 87//4 88//4 86//4 85//4
f 89//4 90//4 88//4 87//4
f 91//4 92//4 90//4 89//4
f 93//4 94//4 92//4 91//4
f 95//4 96//4 94//4 93//4
f 97//4 98//4 96//4 95//4
f 99//4 100//4 98//4 97//4
f 101//4 102//4 100//4 99//4
f 103//4 104//4 102//4 101//4
f 105//4 106//4 104//4 103//4
f 107//4 108//4 106//4 105//4
f 109//4 110//4 108//4 107//4
f 111//4 112//4 110//4 109//4

